<?xml version="1.0" encoding="UTF-8" standalone="no"?>
<svg
   xmlns:svg="http://www.w3.org/2000/svg"
   xmlns="http://www.w3.org/2000/svg"
   version="1.1"
   width="607.29999"
   height="220.63313"
   id="svg4587">
  <defs
     id="defs4589" />
  <g
     transform="translate(-46.35,-422.04561)"
     id="layer1">
    <path
       d="m 46.35,642.67875 607.3,0 0,-220.63314 -607.3,0 0,220.63314 z"
       id="path3257"
       style="fill:#ec1c23;fill-opacity:1;fill-rule:nonzero;stroke:none" />
    <path
       d="m 534.20615,467.51395 37.07561,0 c 24.0439,0 36.3474,9.6997 36.3474,30.12368 0,14.0563 -6.65981,21.29614 -17.51957,25.784 l 0,0.58003 23.89994,43.88784 -23.61204,0 -20.71188,-38.96813 -13.32385,0 0,38.96813 -22.15561,0 0,-100.37555 z m 34.31939,47.06745 c 11.87588,0 16.66011,-5.20761 16.66011,-16.07161 0,-10.43214 -4.92394,-15.06395 -16.80829,-15.06395 l -12.30773,0 0,31.13556 12.45591,0 z m -75.18089,-47.06873 22.17254,0 0,100.37554 -22.17254,0 0,-100.37554 z m -68.5194,10e-4 23.17597,0 35.33551,100.37555 -22.73565,0 -7.96382,-23.18443 -35.4837,0 -7.82411,23.18443 -20.12761,0 35.62341,-100.37555 z m -2.89593,61.8435 25.63581,0 -12.5914,-37.36775 -0.5885,0 -12.45591,37.36775 z m -118.06238,-61.8435 35.1958,0 c 30.98737,0 48.94726,14.19602 48.94726,47.65172 l 0,3.18807 c 0,32.87142 -16.9353,49.53576 -48.80331,49.53576 l -35.33975,0 0,-100.37555 z m 35.1958,83.8594 c 17.37986,0 25.49187,-8.55233 25.49187,-31.43193 l 0,-5.06365 c 0,-23.76024 -9.70817,-30.85613 -26.6477,-30.85613 l -11.87589,0 0,67.35171 13.03172,0 z m -116.61437,-83.8594 65.46765,0 0,16.50769 -43.45175,0 0,24.33603 33.74782,0 0,16.21979 -33.74782,0 0,26.79589 44.4721,0 0,16.51615 -66.488,0 0,-100.37555 z m -122.99095,0 30.26762,0 22.0159,69.51943 0.58426,0 21.86772,-69.51943 29.97548,0 0,100.37555 -21.86771,0 0,-73.87179 -0.43185,0 -23.31991,73.87179 -16.79982,0 -23.02778,-73.87179 -0.58004,0 0,73.87179 -18.68387,0 0,-100.37555 z m 500.39589,127.28023 0,-12.45592 2.50219,0 0,12.29503 c 0,3.98403 1.65543,5.17374 4.71649,5.17374 3.02718,0 4.49209,-1.1643 4.49209,-5.20761 l 0,-12.26116 2.31167,0 0,12.37124 c 0,4.93241 -2.31167,7.08743 -6.91808,7.08743 -4.54289,0 -7.10436,-2.26933 -7.10436,-7.00275 m -19.28338,-0.85818 5.95699,0 -2.95097,-8.2729 -0.0847,0 -2.92134,8.2729 z m 1.93062,-11.59645 2.44716,0 6.89266,19.09455 -2.62497,0 -1.92215,-5.36849 -7.46424,0 -1.90946,5.36849 -2.36247,0 6.94347,-19.09455 z m -20.16784,17.00176 c 2.67154,0 4.05177,-1.13043 4.05177,-3.44634 0,-2.39634 -1.50724,-3.33202 -4.21266,-3.33202 l -3.58605,0 0,6.77836 3.74694,0 z m -0.74092,-8.79366 c 2.2905,0 4.02637,-0.69011 4.02637,-3.06106 0,-2.34554 -1.32519,-3.03565 -3.83162,-3.03565 l -3.20077,0 0,6.09671 3.00602,0 z m -5.51668,-8.20939 5.93159,0 c 4.46246,0 6.19832,1.82055 6.19832,4.8181 0,1.89675 -0.80442,3.39129 -3.11186,4.13644 l 0,0.10568 c 2.40058,0.44032 3.94169,1.85442 3.94169,4.60217 0,3.14573 -2.18465,5.432 -6.53702,5.432 l -6.42272,0 0,-19.09456 z m -20.2093,0 11.08415,0 0,2.11268 -8.58196,0 0,6.43118 6.61747,0 0,2.12115 -6.61747,0 0,8.42955 -2.50219,0 0,-19.09456 z m -24.4999,12.45592 0,-12.45592 2.50219,0 0,12.29503 c 0,3.98403 1.65543,5.17374 4.71648,5.17374 3.02719,0 4.49209,-1.1643 4.49209,-5.20761 l 0,-12.26116 2.31591,0 0,12.37124 c 0,4.93241 -2.31591,7.08743 -6.91808,7.08743 -4.54713,0 -7.10859,-2.26933 -7.10859,-7.00275 m -18.51577,-0.85818 5.95699,0 -2.95098,-8.2729 -0.0847,0 -2.92134,8.2729 z m 1.93062,-11.59645 2.45562,0 6.89267,19.09455 -2.62497,0 -1.92639,-5.36849 -7.46847,0 -1.90099,5.36849 -2.37094,0 6.94347,-19.09455 z m -21.3186,9.03031 c 2.78162,0 3.88665,-1.12196 3.88665,-3.55641 0,-2.40058 -1.1516,-3.36166 -3.91629,-3.36166 l -2.92134,0 0,6.91807 2.95098,0 z m -5.46164,-9.03075 5.62252,0 c 4.19996,0 6.40155,1.84171 6.40155,5.42353 0,2.73505 -1.38023,4.18725 -3.61145,4.98745 l 0,0.13954 4.99168,8.54386 -2.87054,0 -4.6064,-8.06967 -3.4167,0 0,8.06967 -2.51066,0 0,-19.09455 z m -20.92102,-8.5e-4 11.38052,0 0,2.11268 -8.87833,0 0,6.07554 6.83763,0 0,2.11268 -6.83763,0 0,6.66828 8.96301,0 0,2.12538 -11.4652,0 0,-19.09456 z m -18.49546,16.94716 c 4.27617,0 6.18139,-2.09151 6.18139,-7.00275 l 0,-0.93991 c 0,-5.17797 -2.37941,-6.86303 -6.50739,-6.86303 l -3.03565,0 0,14.80569 3.36165,0 z m -5.87231,-16.948 5.76223,0 c 5.78764,0 8.98842,2.95097 8.98842,9.00534 l 0,0.55887 c 0,5.94852 -2.75622,9.53034 -8.93338,9.53034 l -5.81727,0 0,-19.09455 z m -20.92909,8.4e-4 11.38052,0 0,2.11268 -8.86986,0 0,6.07554 6.83339,0 0,2.11268 -6.83339,0 0,6.66828 8.95454,0 0,2.12538 -11.4652,0 0,-19.09456 z m -13.077,0 2.50219,0 0,19.09456 -2.50219,0 0,-19.09456 z m -31.1106,0 2.5403,0 3.60299,15.15287 0.0847,0 4.33121,-15.15287 2.05763,0 4.24653,15.15287 0.0847,0 3.58182,-15.15287 2.3159,0 -4.76306,19.09456 -2.42598,0 -4.10681,-14.87343 -0.0847,0 -4.24652,14.87343 -2.42175,0 -4.79693,-19.09456 z m -25.98553,16.94716 c 4.27193,0 6.17292,-2.09151 6.17292,-7.00275 l 0,-0.93991 c 0,-5.17797 -2.37094,-6.86303 -6.50316,-6.86303 l -3.03565,0 0,14.80569 3.36589,0 z m -5.87231,-16.948 5.76223,0 c 5.78341,0 8.98418,2.95097 8.98418,9.00534 l 0,0.55887 c 0,5.94852 -2.75622,9.53034 -8.92914,9.53034 l -5.81727,0 0,-19.09455 z m -24.66289,8.4e-4 2.95098,0 8.76402,14.8565 0.0806,0 0,-14.8565 2.28627,0 0,19.09456 -2.5911,0 -9.11966,-15.65669 -0.0891,0 0,15.65669 -2.28204,0 0,-19.09456 z m -24.50409,12.45592 0,-12.45592 2.50642,0 0,12.29503 c 0,3.98403 1.65543,5.17374 4.71648,5.17374 3.03142,0 4.49209,-1.1643 4.49209,-5.20761 l 0,-12.26116 2.3159,0 0,12.37124 c 0,4.93241 -2.3159,7.08743 -6.9223,7.08743 -4.54713,0 -7.10859,-2.26933 -7.10859,-7.00275 m -31.93406,-12.45592 11.38052,0 0,2.11268 -8.86986,0 0,6.07554 6.83339,0 0,2.11268 -6.83339,0 0,6.66828 8.95031,0 0,2.12538 -11.46097,0 0,-19.09456 z m -20.21737,0 11.07993,0 0,2.11268 -8.5735,0 0,6.43118 6.61747,0 0,2.12115 -6.61747,0 0,8.42955 -2.50643,0 0,-19.09456 z m -19.03274,0 2.5149,0 0,16.96918 8.42954,0 0,2.12538 -10.94444,0 0,-19.09456 z m -13.07913,0 2.50642,0 0,19.09456 -2.50642,0 0,-19.09456 z m -24.80643,0 2.50219,0 0,8.15858 9.18317,0 0,-8.15858 2.50643,0 0,19.09456 -2.50643,0 0,-8.8233 -9.18317,0 0,8.8233 -2.50219,0 0,-19.09456 z m -16.11435,2.11312 -5.64792,0 0,-2.11268 13.8065,0 0,2.11268 -5.64792,0 0,16.98188 -2.51066,0 0,-16.98188 z m -14.64904,8.13233 0,-0.93567 c 0,-4.42858 -1.51571,-7.55315 -5.78764,-7.57855 -3.85701,0 -5.64792,3.06106 -5.64792,7.08319 l 0,0.93568 c 0,4.44128 1.51571,7.60818 5.758,7.60818 3.85279,0 5.67756,-3.08222 5.67756,-7.11283 m -14.13674,-0.44031 0,-0.5504 c 0,-5.92736 3.17113,-9.59385 8.48882,-9.59385 5.18644,0 8.34911,3.4167 8.34911,9.62349 l 0,0.55039 c 0,5.92736 -3.16267,9.59385 -8.45919,9.59385 -5.20761,0 -8.37874,-3.42516 -8.37874,-9.62348 m -23.142906,-9.80514 2.950976,0 8.76402,14.8565 0.0847,0 0,-14.8565 2.28203,0 0,19.09456 -2.58687,0 -9.12813,-15.65669 -0.0806,0 0,15.65669 -2.286266,0 0,-19.09456 z"
       id="path3377"
       style="fill:#ffffff;fill-opacity:1;fill-rule:nonzero;stroke:none" />
  </g>
</svg>
